<?xml version="1.0" standalone="no"?>
<!DOCTYPE svg PUBLIC "-//W3C//DTD SVG 1.1//EN" 
  "http://www.w3.org/Graphics/SVG/1.1/DTD/svg11.dtd">
<svg width="1024" height="1024" viewBox="0 0 1024 1024"
     xmlns="http://www.w3.org/2000/svg" version="1.1">
<desc>'Dungeon.blend', Plane.003, (Blender 2.72 (sub 0))</desc>
<polygon stroke="black" stroke-width="1" fill="grey" fill-opacity="0.25" points="247.173,0.000 211.862,0.000 211.862,53.895 247.173,53.895 " />
<polygon stroke="black" stroke-width="1" fill="grey" fill-opacity="0.25" points="741.517,592.842 741.517,556.912 688.552,556.912 688.552,592.842 " />
<polygon stroke="black" stroke-width="1" fill="grey" fill-opacity="0.25" points="105.931,413.193 105.931,377.263 52.966,377.263 52.966,413.193 " />
<polygon stroke="black" stroke-width="1" fill="grey" fill-opacity="0.25" points="52.966,772.491 52.966,808.421 105.931,808.421 105.931,772.491 " />
<polygon stroke="black" stroke-width="1" fill="grey" fill-opacity="0.25" points="794.483,449.123 794.483,413.193 741.517,413.193 741.517,449.123 " />
<polygon stroke="black" stroke-width="1" fill="grey" fill-opacity="0.25" points="794.483,628.772 794.483,664.702 847.448,664.702 847.448,628.772 " />
<polygon stroke="black" stroke-width="1" fill="grey" fill-opacity="0.25" points="317.793,844.351 317.793,880.281 370.759,880.281 370.759,844.351 " />
<polygon stroke="black" stroke-width="1" fill="grey" fill-opacity="0.25" points="52.966,700.632 52.966,664.702 0.000,664.702 0.000,700.632 " />
<polygon stroke="black" stroke-width="1" fill="grey" fill-opacity="0.25" points="52.966,988.070 52.966,1024.000 105.931,1024.000 105.931,988.070 " />
<polygon stroke="black" stroke-width="1" fill="grey" fill-opacity="0.25" points="317.793,341.333 317.793,377.263 370.759,377.263 370.759,341.333 " />
<polygon stroke="black" stroke-width="1" fill="grey" fill-opacity="0.25" points="52.966,197.614 52.966,161.684 0.000,161.684 0.000,197.614 " />
<polygon stroke="black" stroke-width="1" fill="grey" fill-opacity="0.25" points="688.552,161.684 688.552,197.614 741.517,197.614 741.517,161.684 " />
<polygon stroke="black" stroke-width="1" fill="grey" fill-opacity="0.25" points="370.759,628.772 370.759,664.702 423.724,664.702 423.724,628.772 " />
<polygon stroke="black" stroke-width="1" fill="grey" fill-opacity="0.25" points="900.414,556.912 900.414,592.842 953.379,592.842 953.379,556.912 " />
<polygon stroke="black" stroke-width="1" fill="grey" fill-opacity="0.25" points="52.966,520.983 52.966,485.053 0.000,485.053 0.000,520.983 " />
<polygon stroke="black" stroke-width="1" fill="grey" fill-opacity="0.25" points="529.655,161.684 529.655,125.755 476.690,125.755 476.690,161.684 " />
<polygon stroke="black" stroke-width="1" fill="grey" fill-opacity="0.25" points="529.655,592.842 529.655,556.912 476.690,556.912 476.690,592.842 " />
<polygon stroke="black" stroke-width="1" fill="grey" fill-opacity="0.25" points="105.931,197.614 105.931,233.544 158.897,233.544 158.897,197.614 " />
<polygon stroke="black" stroke-width="1" fill="grey" fill-opacity="0.25" points="582.621,556.912 582.621,520.982 529.655,520.982 529.655,556.912 " />
<polygon stroke="black" stroke-width="1" fill="grey" fill-opacity="0.25" points="317.793,125.754 317.793,89.825 264.828,89.825 264.828,125.754 " />
<polygon stroke="black" stroke-width="1" fill="grey" fill-opacity="0.25" points="847.448,952.140 847.448,988.070 900.414,988.070 900.414,952.140 " />
<polygon stroke="black" stroke-width="1" fill="grey" fill-opacity="0.25" points="953.379,161.684 953.379,125.754 900.414,125.754 900.414,161.684 " />
<polygon stroke="black" stroke-width="1" fill="grey" fill-opacity="0.25" points="52.965,988.070 52.965,952.140 0.000,952.140 0.000,988.070 " />
<polygon stroke="black" stroke-width="1" fill="grey" fill-opacity="0.25" points="476.690,592.842 476.690,556.912 423.724,556.912 423.724,592.842 " />
<polygon stroke="black" stroke-width="1" fill="grey" fill-opacity="0.25" points="688.552,628.772 688.552,592.842 635.586,592.842 635.586,628.772 " />
<polygon stroke="black" stroke-width="1" fill="grey" fill-opacity="0.25" points="529.655,233.544 529.655,197.614 476.690,197.614 476.690,233.544 " />
<polygon stroke="black" stroke-width="1" fill="grey" fill-opacity="0.25" points="794.483,413.193 794.483,377.263 741.517,377.263 741.517,413.193 " />
<polygon stroke="black" stroke-width="1" fill="grey" fill-opacity="0.25" points="52.966,736.561 52.966,772.491 105.931,772.491 105.931,736.561 " />
<polygon stroke="black" stroke-width="1" fill="grey" fill-opacity="0.25" points="988.690,413.193 953.379,413.193 953.379,467.088 988.690,467.088 " />
<polygon stroke="black" stroke-width="1" fill="grey" fill-opacity="0.25" points="52.966,664.702 52.966,628.772 0.000,628.772 0.000,664.702 " />
<polygon stroke="black" stroke-width="1" fill="grey" fill-opacity="0.25" points="317.793,808.421 317.793,844.351 370.759,844.351 370.759,808.421 " />
<polygon stroke="black" stroke-width="1" fill="grey" fill-opacity="0.25" points="52.966,233.544 52.966,197.614 0.000,197.614 0.000,233.544 " />
<polygon stroke="black" stroke-width="1" fill="grey" fill-opacity="0.25" points="158.897,988.070 158.897,952.140 105.931,952.140 105.931,988.070 " />
<polygon stroke="black" stroke-width="1" fill="grey" fill-opacity="0.25" points="370.759,592.842 370.759,628.772 423.724,628.772 423.724,592.842 " />
<polygon stroke="black" stroke-width="1" fill="grey" fill-opacity="0.25" points="900.414,341.333 900.414,377.263 953.379,377.263 953.379,341.333 " />
<polygon stroke="black" stroke-width="1" fill="grey" fill-opacity="0.25" points="635.586,89.824 635.586,53.895 582.621,53.895 582.621,89.824 " />
<polygon stroke="black" stroke-width="1" fill="grey" fill-opacity="0.25" points="52.966,556.912 52.966,520.983 0.000,520.983 0.000,556.912 " />
<polygon stroke="black" stroke-width="1" fill="grey" fill-opacity="0.25" points="158.897,808.421 158.897,772.491 105.931,772.491 105.931,808.421 " />
<polygon stroke="black" stroke-width="1" fill="grey" fill-opacity="0.25" points="582.621,952.140 582.621,916.210 529.655,916.211 529.655,952.140 " />
<polygon stroke="black" stroke-width="1" fill="grey" fill-opacity="0.25" points="847.448,664.702 847.448,700.632 900.414,700.632 900.414,664.702 " />
<polygon stroke="black" stroke-width="1" fill="grey" fill-opacity="0.25" points="158.897,1024.000 158.897,988.070 105.931,988.070 105.931,1024.000 " />
<polygon stroke="black" stroke-width="1" fill="grey" fill-opacity="0.25" points="264.828,305.404 264.828,341.333 317.793,341.333 317.793,305.404 " />
<polygon stroke="black" stroke-width="1" fill="grey" fill-opacity="0.25" points="847.448,988.070 847.448,1024.000 900.414,1024.000 900.414,988.070 " />
<polygon stroke="black" stroke-width="1" fill="grey" fill-opacity="0.25" points="52.966,952.140 52.966,988.070 105.931,988.070 105.931,952.140 " />
<polygon stroke="black" stroke-width="1" fill="grey" fill-opacity="0.25" points="476.690,628.772 476.690,592.842 423.724,592.842 423.724,628.772 " />
<polygon stroke="black" stroke-width="1" fill="grey" fill-opacity="0.25" points="52.965,952.140 52.965,916.211 0.000,916.211 0.000,952.140 " />
<polygon stroke="black" stroke-width="1" fill="grey" fill-opacity="0.25" points="529.655,664.702 529.655,700.632 582.621,700.632 582.621,664.702 " />
<polygon stroke="black" stroke-width="1" fill="grey" fill-opacity="0.25" points="900.414,520.982 900.414,556.912 953.379,556.912 953.379,520.982 " />
<polygon stroke="black" stroke-width="1" fill="grey" fill-opacity="0.25" points="105.931,377.263 105.931,341.333 52.966,341.333 52.966,377.263 " />
<polygon stroke="black" stroke-width="1" fill="grey" fill-opacity="0.25" points="52.966,125.754 52.966,89.825 0.000,89.825 0.000,125.754 " />
<polygon stroke="black" stroke-width="1" fill="grey" fill-opacity="0.25" points="264.828,269.474 264.828,305.404 317.793,305.404 317.793,269.474 " />
<polygon stroke="black" stroke-width="1" fill="grey" fill-opacity="0.25" points="1024.000,970.105 988.690,970.105 988.690,1024.000 1024.000,1024.000 " />
<polygon stroke="black" stroke-width="1" fill="grey" fill-opacity="0.25" points="105.931,520.983 105.931,485.053 52.966,485.053 52.966,520.983 " />
<polygon stroke="black" stroke-width="1" fill="grey" fill-opacity="0.25" points="52.966,700.632 52.966,736.561 105.931,736.561 105.931,700.632 " />
<polygon stroke="black" stroke-width="1" fill="grey" fill-opacity="0.25" points="317.793,556.912 317.793,520.983 264.828,520.983 264.828,556.912 " />
<polygon stroke="black" stroke-width="1" fill="grey" fill-opacity="0.25" points="158.897,844.351 158.897,808.421 105.931,808.421 105.931,844.351 " />
<polygon stroke="black" stroke-width="1" fill="grey" fill-opacity="0.25" points="988.690,754.526 953.379,754.526 953.379,808.421 988.690,808.421 " />
<polygon stroke="black" stroke-width="1" fill="grey" fill-opacity="0.25" points="317.793,772.491 317.793,808.421 370.759,808.421 370.759,772.491 " />
<polygon stroke="black" stroke-width="1" fill="grey" fill-opacity="0.25" points="52.966,269.474 52.966,233.544 0.000,233.544 0.000,269.474 " />
<polygon stroke="black" stroke-width="1" fill="grey" fill-opacity="0.25" points="370.759,125.755 370.759,161.684 423.724,161.684 423.724,125.755 " />
<polygon stroke="black" stroke-width="1" fill="grey" fill-opacity="0.25" points="370.759,556.912 370.759,592.842 423.724,592.842 423.724,556.912 " />
<polygon stroke="black" stroke-width="1" fill="grey" fill-opacity="0.25" points="900.414,844.351 900.414,808.421 847.448,808.421 847.448,844.351 " />
<polygon stroke="black" stroke-width="1" fill="grey" fill-opacity="0.25" points="688.552,880.281 688.552,916.211 741.517,916.211 741.517,880.281 " />
<polygon stroke="black" stroke-width="1" fill="grey" fill-opacity="0.25" points="52.966,592.842 52.966,556.912 0.000,556.912 0.000,592.842 " />
<polygon stroke="black" stroke-width="1" fill="grey" fill-opacity="0.25" points="847.448,700.632 847.448,736.561 900.414,736.561 900.414,700.632 " />
<polygon stroke="black" stroke-width="1" fill="grey" fill-opacity="0.25" points="635.586,53.895 635.586,17.965 582.621,17.965 582.621,53.895 " />
<polygon stroke="black" stroke-width="1" fill="grey" fill-opacity="0.25" points="264.828,988.070 264.828,952.140 211.862,952.140 211.862,988.070 " />
<polygon stroke="black" stroke-width="1" fill="grey" fill-opacity="0.25" points="900.414,592.842 900.414,556.912 847.448,556.912 847.448,592.842 " />
<polygon stroke="black" stroke-width="1" fill="grey" fill-opacity="0.25" points="264.828,880.281 264.828,844.351 211.862,844.351 211.862,880.281 " />
<polygon stroke="black" stroke-width="1" fill="grey" fill-opacity="0.25" points="476.690,664.702 476.690,628.772 423.724,628.772 423.724,664.702 " />
<polygon stroke="black" stroke-width="1" fill="grey" fill-opacity="0.25" points="52.965,916.211 52.965,880.281 0.000,880.281 0.000,916.211 " />
<polygon stroke="black" stroke-width="1" fill="grey" fill-opacity="0.25" points="158.897,772.491 158.897,736.561 105.931,736.561 105.931,772.491 " />
<polygon stroke="black" stroke-width="1" fill="grey" fill-opacity="0.25" points="529.655,700.632 529.655,736.561 582.621,736.561 582.621,700.632 " />
<polygon stroke="black" stroke-width="1" fill="grey" fill-opacity="0.25" points="158.897,952.140 158.897,916.211 105.931,916.211 105.931,952.140 " />
<polygon stroke="black" stroke-width="1" fill="grey" fill-opacity="0.25" points="52.966,664.702 52.966,700.632 105.931,700.632 105.931,664.702 " />
<polygon stroke="black" stroke-width="1" fill="grey" fill-opacity="0.25" points="317.793,592.842 317.793,556.912 264.828,556.912 264.828,592.842 " />
<polygon stroke="black" stroke-width="1" fill="grey" fill-opacity="0.25" points="317.793,736.561 317.793,772.491 370.759,772.491 370.759,736.561 " />
<polygon stroke="black" stroke-width="1" fill="grey" fill-opacity="0.25" points="52.966,628.772 52.966,592.842 0.000,592.842 0.000,628.772 " />
<polygon stroke="black" stroke-width="1" fill="grey" fill-opacity="0.25" points="158.897,880.281 158.897,844.351 105.931,844.351 105.931,880.281 " />
<polygon stroke="black" stroke-width="1" fill="grey" fill-opacity="0.25" points="52.966,305.404 52.966,269.474 0.000,269.474 0.000,305.404 " />
<polygon stroke="black" stroke-width="1" fill="grey" fill-opacity="0.25" points="476.690,89.825 476.690,53.895 423.724,53.895 423.724,89.825 " />
<polygon stroke="black" stroke-width="1" fill="grey" fill-opacity="0.25" points="370.759,520.983 370.759,556.912 423.724,556.912 423.724,520.983 " />
<polygon stroke="black" stroke-width="1" fill="grey" fill-opacity="0.25" points="900.414,305.404 900.414,341.333 953.379,341.333 953.379,305.404 " />
<polygon stroke="black" stroke-width="1" fill="grey" fill-opacity="0.25" points="476.690,377.263 476.690,413.193 529.655,413.193 529.655,377.263 " />
<polygon stroke="black" stroke-width="1" fill="grey" fill-opacity="0.25" points="688.552,592.842 688.552,556.912 635.586,556.912 635.586,592.842 " />
<polygon stroke="black" stroke-width="1" fill="grey" fill-opacity="0.25" points="105.931,161.684 105.931,197.614 158.897,197.614 158.897,161.684 " />
<polygon stroke="black" stroke-width="1" fill="grey" fill-opacity="0.25" points="370.759,161.684 370.759,197.614 423.724,197.614 423.724,161.684 " />
<polygon stroke="black" stroke-width="1" fill="grey" fill-opacity="0.25" points="794.483,89.825 794.483,53.895 741.517,53.895 741.517,89.825 " />
<polygon stroke="black" stroke-width="1" fill="grey" fill-opacity="0.25" points="529.655,736.561 529.655,700.632 476.690,700.632 476.690,736.561 " />
<polygon stroke="black" stroke-width="1" fill="grey" fill-opacity="0.25" points="582.621,520.982 582.621,485.053 529.655,485.053 529.655,520.982 " />
<polygon stroke="black" stroke-width="1" fill="grey" fill-opacity="0.25" points="317.793,700.632 317.793,736.561 370.759,736.561 370.759,700.632 " />
<polygon stroke="black" stroke-width="1" fill="grey" fill-opacity="0.25" points="264.828,844.351 264.828,808.421 211.862,808.421 211.862,844.351 " />
<polygon stroke="black" stroke-width="1" fill="grey" fill-opacity="0.25" points="900.414,556.912 900.414,520.982 847.448,520.982 847.448,556.912 " />
<polygon stroke="black" stroke-width="1" fill="grey" fill-opacity="0.25" points="476.690,700.632 476.690,664.702 423.724,664.702 423.724,700.632 " />
<polygon stroke="black" stroke-width="1" fill="grey" fill-opacity="0.25" points="52.965,880.281 52.966,844.351 0.000,844.351 0.000,880.281 " />
<polygon stroke="black" stroke-width="1" fill="grey" fill-opacity="0.25" points="158.897,736.561 158.897,700.632 105.931,700.632 105.931,736.561 " />
<polygon stroke="black" stroke-width="1" fill="grey" fill-opacity="0.25" points="529.655,736.561 529.655,772.491 582.621,772.491 582.621,736.561 " />
<polygon stroke="black" stroke-width="1" fill="grey" fill-opacity="0.25" points="794.483,520.982 794.483,485.053 741.517,485.053 741.517,520.982 " />
<polygon stroke="black" stroke-width="1" fill="grey" fill-opacity="0.25" points="158.897,0.000 123.586,0.000 123.586,53.895 158.897,53.895 " />
<polygon stroke="black" stroke-width="1" fill="grey" fill-opacity="0.25" points="370.759,485.053 370.759,520.983 423.724,520.983 423.724,485.053 " />
<polygon stroke="black" stroke-width="1" fill="grey" fill-opacity="0.25" points="52.966,628.772 52.966,664.702 105.931,664.702 105.931,628.772 " />
<polygon stroke="black" stroke-width="1" fill="grey" fill-opacity="0.25" points="317.793,628.772 317.793,592.842 264.828,592.842 264.828,628.772 " />
<polygon stroke="black" stroke-width="1" fill="grey" fill-opacity="0.25" points="158.897,916.211 158.897,880.281 105.931,880.281 105.931,916.211 " />
<polygon stroke="black" stroke-width="1" fill="grey" fill-opacity="0.25" points="317.793,89.825 317.793,53.895 264.828,53.895 264.828,89.825 " />
<polygon stroke="black" stroke-width="1" fill="grey" fill-opacity="0.25" points="317.793,988.070 317.793,1024.000 370.759,1024.000 370.759,988.070 " />
<polygon stroke="black" stroke-width="1" fill="grey" fill-opacity="0.25" points="52.966,341.333 52.966,305.404 0.000,305.404 0.000,341.333 " />
<polygon stroke="black" stroke-width="1" fill="grey" fill-opacity="0.25" points="52.966,161.684 52.966,125.754 0.000,125.754 0.000,161.684 " />
<polygon stroke="black" stroke-width="1" fill="grey" fill-opacity="0.25" points="529.655,197.614 529.655,161.684 476.690,161.684 476.690,197.614 " />
<polygon stroke="black" stroke-width="1" fill="grey" fill-opacity="0.25" points="105.931,485.053 105.931,449.123 52.966,449.123 52.966,485.053 " />
<polygon stroke="black" stroke-width="1" fill="grey" fill-opacity="0.25" points="688.552,53.895 688.552,89.825 741.517,89.825 741.517,53.895 " />
<polygon stroke="black" stroke-width="1" fill="grey" fill-opacity="0.25" points="370.759,197.614 370.759,233.544 423.724,233.544 423.724,197.614 " />
<polygon stroke="black" stroke-width="1" fill="grey" fill-opacity="0.25" points="529.655,772.491 529.655,736.561 476.690,736.561 476.690,772.491 " />
<polygon stroke="black" stroke-width="1" fill="grey" fill-opacity="0.25" points="582.621,916.210 582.621,880.281 529.655,880.281 529.655,916.211 " />
<polygon stroke="black" stroke-width="1" fill="grey" fill-opacity="0.25" points="529.655,700.632 529.655,664.702 476.690,664.702 476.690,700.632 " />
<polygon stroke="black" stroke-width="1" fill="grey" fill-opacity="0.25" points="317.793,269.474 317.793,305.403 370.759,305.403 370.759,269.474 " />
<polygon stroke="black" stroke-width="1" fill="grey" fill-opacity="0.25" points="582.621,1024.000 582.621,988.070 529.655,988.070 529.655,1024.000 " />
<polygon stroke="black" stroke-width="1" fill="grey" fill-opacity="0.25" points="264.828,808.421 264.828,772.491 211.862,772.491 211.862,808.421 " />
<polygon stroke="black" stroke-width="1" fill="grey" fill-opacity="0.25" points="953.379,700.632 953.379,664.702 900.414,664.702 900.414,700.632 " />
<polygon stroke="black" stroke-width="1" fill="grey" fill-opacity="0.25" points="476.690,413.193 476.690,449.123 529.655,449.123 529.655,413.193 " />
<polygon stroke="black" stroke-width="1" fill="grey" fill-opacity="0.25" points="52.966,916.211 52.966,952.140 105.931,952.140 105.931,916.211 " />
<polygon stroke="black" stroke-width="1" fill="grey" fill-opacity="0.25" points="52.966,844.351 52.966,808.421 0.000,808.421 0.000,844.351 " />
<polygon stroke="black" stroke-width="1" fill="grey" fill-opacity="0.25" points="158.897,700.632 158.897,664.702 105.931,664.702 105.931,700.632 " />
<polygon stroke="black" stroke-width="1" fill="grey" fill-opacity="0.25" points="476.690,736.561 476.690,700.632 423.724,700.632 423.724,736.561 " />
<polygon stroke="black" stroke-width="1" fill="grey" fill-opacity="0.25" points="794.483,556.912 794.483,520.982 741.517,520.982 741.517,556.912 " />
<polygon stroke="black" stroke-width="1" fill="grey" fill-opacity="0.25" points="688.552,413.193 688.552,377.263 635.586,377.263 635.586,413.193 " />
<polygon stroke="black" stroke-width="1" fill="grey" fill-opacity="0.25" points="317.793,233.544 317.793,269.474 370.759,269.474 370.759,233.544 " />
<polygon stroke="black" stroke-width="1" fill="grey" fill-opacity="0.25" points="582.621,592.842 582.621,556.912 529.655,556.912 529.655,592.842 " />
<polygon stroke="black" stroke-width="1" fill="grey" fill-opacity="0.25" points="317.793,664.702 317.793,628.772 264.828,628.772 264.828,664.702 " />
<polygon stroke="black" stroke-width="1" fill="grey" fill-opacity="0.25" points="52.966,592.842 52.966,628.772 105.931,628.772 105.931,592.842 " />
<polygon stroke="black" stroke-width="1" fill="grey" fill-opacity="0.25" points="88.276,0.000 52.966,0.000 52.966,53.895 88.276,53.895 " />
<polygon stroke="black" stroke-width="1" fill="grey" fill-opacity="0.25" points="988.690,520.982 953.379,520.982 953.379,574.877 988.690,574.877 " />
<polygon stroke="black" stroke-width="1" fill="grey" fill-opacity="0.25" points="52.966,377.263 52.966,341.333 0.000,341.333 0.000,377.263 " />
<polygon stroke="black" stroke-width="1" fill="grey" fill-opacity="0.25" points="317.793,449.123 317.793,485.053 370.759,485.053 370.759,449.123 " />
<polygon stroke="black" stroke-width="1" fill="grey" fill-opacity="0.25" points="688.552,377.263 688.552,341.333 635.586,341.333 635.586,377.263 " />
<polygon stroke="black" stroke-width="1" fill="grey" fill-opacity="0.25" points="741.517,233.544 741.517,197.614 688.552,197.614 688.552,233.544 " />
<polygon stroke="black" stroke-width="1" fill="grey" fill-opacity="0.25" points="688.552,89.825 688.552,125.754 741.517,125.754 741.517,89.825 " />
<polygon stroke="black" stroke-width="1" fill="grey" fill-opacity="0.25" points="264.828,916.211 264.828,880.281 211.862,880.281 211.862,916.211 " />
<polygon stroke="black" stroke-width="1" fill="grey" fill-opacity="0.25" points="688.552,341.333 688.552,305.404 635.586,305.404 635.586,341.333 " />
<polygon stroke="black" stroke-width="1" fill="grey" fill-opacity="0.25" points="529.655,664.702 529.655,628.772 476.690,628.772 476.690,664.702 " />
<polygon stroke="black" stroke-width="1" fill="grey" fill-opacity="0.25" points="317.793,305.403 317.793,341.333 370.759,341.333 370.759,305.403 " />
<polygon stroke="black" stroke-width="1" fill="grey" fill-opacity="0.25" points="741.517,269.474 741.517,233.544 688.552,233.544 688.552,269.474 " />
<polygon stroke="black" stroke-width="1" fill="grey" fill-opacity="0.25" points="794.483,161.684 794.483,197.614 847.448,197.614 847.448,161.684 " />
<polygon stroke="black" stroke-width="1" fill="grey" fill-opacity="0.25" points="582.621,988.070 582.621,952.140 529.655,952.140 529.655,988.070 " />
<polygon stroke="black" stroke-width="1" fill="grey" fill-opacity="0.25" points="264.828,772.491 264.828,736.561 211.862,736.561 211.862,772.491 " />
<polygon stroke="black" stroke-width="1" fill="grey" fill-opacity="0.25" points="476.690,449.123 476.690,485.053 529.655,485.053 529.655,449.123 " />
<polygon stroke="black" stroke-width="1" fill="grey" fill-opacity="0.25" points="688.552,916.211 688.552,952.140 741.517,952.140 741.517,916.211 " />
<polygon stroke="black" stroke-width="1" fill="grey" fill-opacity="0.25" points="264.828,1024.000 264.828,988.070 211.862,988.070 211.862,1024.000 " />
<polygon stroke="black" stroke-width="1" fill="grey" fill-opacity="0.25" points="52.966,880.281 52.966,916.211 105.931,916.211 105.931,880.281 " />
<polygon stroke="black" stroke-width="1" fill="grey" fill-opacity="0.25" points="953.379,736.561 953.379,700.632 900.414,700.632 900.414,736.561 " />
<polygon stroke="black" stroke-width="1" fill="grey" fill-opacity="0.25" points="52.966,808.421 52.966,772.491 0.000,772.491 0.000,808.421 " />
<polygon stroke="black" stroke-width="1" fill="grey" fill-opacity="0.25" points="158.897,664.702 158.897,628.772 105.931,628.772 105.931,664.702 " />
<polygon stroke="black" stroke-width="1" fill="grey" fill-opacity="0.25" points="317.793,952.140 317.793,988.070 370.759,988.070 370.759,952.140 " />
<polygon stroke="black" stroke-width="1" fill="grey" fill-opacity="0.25" points="688.552,305.404 688.552,269.474 635.586,269.474 635.586,305.404 " />
<polygon stroke="black" stroke-width="1" fill="grey" fill-opacity="0.25" points="794.483,592.842 794.483,556.912 741.517,556.912 741.517,592.842 " />
<polygon stroke="black" stroke-width="1" fill="grey" fill-opacity="0.25" points="741.517,305.404 741.517,269.474 688.552,269.474 688.552,305.404 " />
<polygon stroke="black" stroke-width="1" fill="grey" fill-opacity="0.25" points="52.966,556.912 52.966,592.842 105.931,592.842 105.931,556.912 " />
<polygon stroke="black" stroke-width="1" fill="grey" fill-opacity="0.25" points="317.793,700.632 317.793,664.702 264.828,664.702 264.828,700.632 " />
<polygon stroke="black" stroke-width="1" fill="grey" fill-opacity="0.25" points="688.552,952.140 688.552,988.070 741.517,988.070 741.517,952.140 " />
<polygon stroke="black" stroke-width="1" fill="grey" fill-opacity="0.25" points="52.966,413.193 52.966,377.263 0.000,377.263 0.000,413.193 " />
<polygon stroke="black" stroke-width="1" fill="grey" fill-opacity="0.25" points="476.690,125.754 476.690,89.825 423.724,89.825 423.724,125.754 " />
<polygon stroke="black" stroke-width="1" fill="grey" fill-opacity="0.25" points="52.966,53.895 52.966,17.965 0.000,17.965 0.000,53.895 " />
<polygon stroke="black" stroke-width="1" fill="grey" fill-opacity="0.25" points="370.759,700.632 370.759,736.561 423.724,736.561 423.724,700.632 " />
<polygon stroke="black" stroke-width="1" fill="grey" fill-opacity="0.25" points="105.931,125.755 105.931,161.684 158.897,161.684 158.897,125.755 " />
<polygon stroke="black" stroke-width="1" fill="grey" fill-opacity="0.25" points="582.621,664.702 582.621,628.772 529.655,628.772 529.655,664.702 " />
<polygon stroke="black" stroke-width="1" fill="grey" fill-opacity="0.25" points="158.897,341.333 158.897,305.404 105.931,305.404 105.931,341.333 " />
<polygon stroke="black" stroke-width="1" fill="grey" fill-opacity="0.25" points="529.655,628.772 529.655,592.842 476.690,592.842 476.690,628.772 " />
<polygon stroke="black" stroke-width="1" fill="grey" fill-opacity="0.25" points="953.379,233.544 953.379,197.614 900.414,197.614 900.414,233.544 " />
<polygon stroke="black" stroke-width="1" fill="grey" fill-opacity="0.25" points="105.931,449.123 105.931,413.193 52.966,413.193 52.966,449.123 " />
<polygon stroke="black" stroke-width="1" fill="grey" fill-opacity="0.25" points="794.483,197.614 794.483,233.544 847.448,233.544 847.448,197.614 " />
<polygon stroke="black" stroke-width="1" fill="grey" fill-opacity="0.25" points="264.828,736.561 264.828,700.632 211.862,700.632 211.862,736.561 " />
<polygon stroke="black" stroke-width="1" fill="grey" fill-opacity="0.25" points="52.966,844.351 52.966,880.281 105.931,880.281 105.931,844.351 " />
<polygon stroke="black" stroke-width="1" fill="grey" fill-opacity="0.25" points="900.414,916.211 900.414,952.140 953.379,952.140 953.379,916.211 " />
<polygon stroke="black" stroke-width="1" fill="grey" fill-opacity="0.25" points="476.690,485.053 476.690,520.983 529.655,520.983 529.655,485.053 " />
<polygon stroke="black" stroke-width="1" fill="grey" fill-opacity="0.25" points="158.897,628.772 158.897,592.842 105.931,592.842 105.931,628.772 " />
<polygon stroke="black" stroke-width="1" fill="grey" fill-opacity="0.25" points="317.793,916.211 317.793,952.140 370.759,952.140 370.759,916.211 " />
<polygon stroke="black" stroke-width="1" fill="grey" fill-opacity="0.25" points="52.966,772.491 52.966,736.561 0.000,736.561 0.000,772.491 " />
<polygon stroke="black" stroke-width="1" fill="grey" fill-opacity="0.25" points="529.655,772.491 529.655,808.421 582.621,808.421 582.621,772.491 " />
<polygon stroke="black" stroke-width="1" fill="grey" fill-opacity="0.25" points="317.793,413.193 317.793,449.123 370.759,449.123 370.759,413.193 " />
<polygon stroke="black" stroke-width="1" fill="grey" fill-opacity="0.25" points="688.552,700.632 688.552,664.702 635.586,664.702 635.586,700.632 " />
<polygon stroke="black" stroke-width="1" fill="grey" fill-opacity="0.25" points="953.379,197.614 953.379,161.684 900.414,161.684 900.414,197.614 " />
<polygon stroke="black" stroke-width="1" fill="grey" fill-opacity="0.25" points="52.966,520.983 52.966,556.912 105.931,556.912 105.931,520.983 " />
<polygon stroke="black" stroke-width="1" fill="grey" fill-opacity="0.25" points="52.966,449.123 52.966,413.193 0.000,413.193 0.000,449.123 " />
<polygon stroke="black" stroke-width="1" fill="grey" fill-opacity="0.25" points="688.552,664.702 688.552,628.772 635.586,628.772 635.586,664.702 " />
<polygon stroke="black" stroke-width="1" fill="grey" fill-opacity="0.25" points="1024.000,808.421 988.690,808.421 988.690,862.316 1024.000,862.316 " />
<polygon stroke="black" stroke-width="1" fill="grey" fill-opacity="0.25" points="688.552,125.754 688.552,161.684 741.517,161.684 741.517,125.754 " />
<polygon stroke="black" stroke-width="1" fill="grey" fill-opacity="0.25" points="211.862,89.825 211.862,53.895 158.897,53.895 158.897,89.825 " />
<polygon stroke="black" stroke-width="1" fill="grey" fill-opacity="0.25" points="794.483,664.702 794.483,700.632 847.448,700.632 847.448,664.702 " />
<polygon stroke="black" stroke-width="1" fill="grey" fill-opacity="0.25" points="794.483,53.895 794.483,17.965 741.517,17.965 741.517,53.895 " />
<polygon stroke="black" stroke-width="1" fill="grey" fill-opacity="0.25" points="794.483,485.053 794.483,449.123 741.517,449.123 741.517,485.053 " />
<polygon stroke="black" stroke-width="1" fill="grey" fill-opacity="0.25" points="582.621,880.281 582.621,844.351 529.655,844.351 529.655,880.281 " />
<polygon stroke="black" stroke-width="1" fill="grey" fill-opacity="0.25" points="582.621,628.772 582.621,592.842 529.655,592.842 529.655,628.772 " />
<polygon stroke="black" stroke-width="1" fill="grey" fill-opacity="0.25" points="158.897,305.404 158.897,269.474 105.931,269.474 105.931,305.404 " />
<polygon stroke="black" stroke-width="1" fill="grey" fill-opacity="0.25" points="264.828,233.544 264.828,269.474 317.793,269.474 317.793,233.544 " />
<polygon stroke="black" stroke-width="1" fill="grey" fill-opacity="0.25" points="794.483,233.544 794.483,269.474 847.448,269.474 847.448,233.544 " />
<polygon stroke="black" stroke-width="1" fill="grey" fill-opacity="0.25" points="264.828,700.632 264.828,664.702 211.862,664.702 211.862,700.632 " />
<polygon stroke="black" stroke-width="1" fill="grey" fill-opacity="0.25" points="794.483,592.842 794.483,628.772 847.448,628.772 847.448,592.842 " />
<polygon stroke="black" stroke-width="1" fill="grey" fill-opacity="0.25" points="52.966,808.421 52.966,844.351 105.931,844.351 105.931,808.421 " />
<polygon stroke="black" stroke-width="1" fill="grey" fill-opacity="0.25" points="900.414,880.281 900.414,916.211 953.379,916.211 953.379,880.281 " />
<polygon stroke="black" stroke-width="1" fill="grey" fill-opacity="0.25" points="476.690,520.983 476.690,556.912 529.655,556.912 529.655,520.983 " />
<polygon stroke="black" stroke-width="1" fill="grey" fill-opacity="0.25" points="317.793,880.281 317.793,916.211 370.759,916.211 370.759,880.281 " />
<polygon stroke="black" stroke-width="1" fill="grey" fill-opacity="0.25" points="52.966,736.561 52.966,700.632 0.000,700.632 0.000,736.561 " />
<polygon stroke="black" stroke-width="1" fill="grey" fill-opacity="0.25" points="158.897,592.842 158.897,556.912 105.931,556.912 105.931,592.842 " />
<polygon stroke="black" stroke-width="1" fill="grey" fill-opacity="0.25" points="317.793,377.263 317.793,413.193 370.759,413.193 370.759,377.263 " />
<polygon stroke="black" stroke-width="1" fill="grey" fill-opacity="0.25" points="370.759,664.702 370.759,700.632 423.724,700.632 423.724,664.702 " />
<polygon stroke="black" stroke-width="1" fill="grey" fill-opacity="0.25" points="317.793,520.983 317.793,485.053 264.828,485.053 264.828,520.983 " />
<polygon stroke="black" stroke-width="1" fill="grey" fill-opacity="0.25" points="688.552,988.070 688.552,1024.000 741.517,1024.000 741.517,988.070 " />
<polygon stroke="black" stroke-width="1" fill="grey" fill-opacity="0.25" points="52.966,485.053 52.966,449.123 0.000,449.123 0.000,485.053 " />
<polygon stroke="black" stroke-width="1" fill="grey" fill-opacity="0.25" points="529.655,808.421 529.655,844.351 582.621,844.351 582.621,808.421 " />
<polygon stroke="black" stroke-width="1" fill="grey" fill-opacity="0.25" points="52.965,1024.000 52.965,988.070 0.000,988.070 0.000,1024.000 " />
<polygon stroke="black" stroke-width="1" fill="grey" fill-opacity="0.25" points="988.690,916.211 953.379,916.211 953.379,970.105 988.690,970.105 " />
<polygon stroke="black" stroke-width="1" fill="grey" fill-opacity="0.25" points="52.966,89.825 52.966,53.895 0.000,53.895 0.000,89.825 " />
<polygon stroke="black" stroke-width="1" fill="grey" fill-opacity="0.25" points="211.862,53.895 211.862,17.965 158.897,17.965 158.897,53.895 " />
<polygon stroke="black" stroke-width="1" fill="grey" fill-opacity="0.25" points="953.379,125.754 953.379,89.825 900.414,89.825 900.414,125.754 " />
<polygon stroke="black" stroke-width="1" fill="grey" fill-opacity="0.25" points="158.897,556.912 158.897,520.983 105.931,520.983 105.931,556.912 " />
<polygon stroke="black" stroke-width="1" fill="grey" fill-opacity="0.25" points="264.828,952.140 264.828,916.211 211.862,916.211 211.862,952.140 " />
<polygon stroke="black" stroke-width="1" fill="grey" fill-opacity="0.25" points="476.690,556.912 476.690,520.983 423.724,520.983 423.724,556.912 " />
<polygon stroke="black" stroke-width="1" fill="grey" fill-opacity="0.25" points="158.897,269.474 158.897,233.544 105.931,233.544 105.931,269.474 " />
<polygon stroke="black" stroke-width="1" fill="grey" fill-opacity="0.25" points="476.690,988.070 476.690,1024.000 529.655,1024.000 529.655,988.070 " />
<polygon stroke="black" stroke-width="1" fill="grey" fill-opacity="0.25" points="264.828,664.702 264.828,628.772 211.862,628.772 211.862,664.702 " />
<polygon stroke="black" stroke-width="1" fill="grey" fill-opacity="0.25" points="847.448,17.965 847.448,53.895 900.414,53.895 900.414,17.965 " />
<polygon stroke="black" stroke-width="1" fill="grey" fill-opacity="0.25" points="953.379,305.404 953.379,269.474 900.414,269.474 900.414,305.404 " />
<polygon stroke="black" stroke-width="1" fill="grey" fill-opacity="0.25" points="794.483,844.351 794.483,808.421 741.517,808.421 741.517,844.351 " />
<polygon stroke="black" stroke-width="1" fill="grey" fill-opacity="0.25" points="264.828,592.842 264.828,556.912 211.862,556.912 211.862,592.842 " />
<polygon stroke="black" stroke-width="1" fill="grey" fill-opacity="0.25" points="582.621,161.684 582.621,197.614 635.586,197.614 635.586,161.684 " />
<polygon stroke="black" stroke-width="1" fill="grey" fill-opacity="0.25" points="317.793,197.614 317.793,161.684 264.828,161.684 264.828,197.614 " />
<polygon stroke="black" stroke-width="1" fill="grey" fill-opacity="0.25" points="317.793,161.684 317.793,125.754 264.828,125.754 264.828,161.684 " />
<polygon stroke="black" stroke-width="1" fill="grey" fill-opacity="0.25" points="582.621,197.614 582.621,233.544 635.586,233.544 635.586,197.614 " />
<polygon stroke="black" stroke-width="1" fill="grey" fill-opacity="0.25" points="317.793,233.544 317.793,197.614 264.828,197.614 264.828,233.544 " />
<polygon stroke="black" stroke-width="1" fill="grey" fill-opacity="0.25" points="988.690,359.298 953.379,359.298 953.379,413.193 988.690,413.193 " />
<polygon stroke="black" stroke-width="1" fill="grey" fill-opacity="0.25" points="105.931,269.474 105.931,233.544 52.966,233.544 52.966,269.474 " />
<polygon stroke="black" stroke-width="1" fill="grey" fill-opacity="0.25" points="105.931,305.404 105.931,269.474 52.966,269.474 52.966,305.404 " />
<polygon stroke="black" stroke-width="1" fill="grey" fill-opacity="0.25" points="105.931,341.333 105.931,305.404 52.966,305.404 52.966,341.333 " />
<polygon stroke="black" stroke-width="1" fill="grey" fill-opacity="0.25" points="741.517,485.053 741.517,449.123 688.552,449.123 688.552,485.053 " />
<polygon stroke="black" stroke-width="1" fill="grey" fill-opacity="0.25" points="741.517,520.982 741.517,485.053 688.552,485.053 688.552,520.982 " />
<polygon stroke="black" stroke-width="1" fill="grey" fill-opacity="0.25" points="741.517,556.912 741.517,520.982 688.552,520.982 688.552,556.912 " />
<polygon stroke="black" stroke-width="1" fill="grey" fill-opacity="0.25" points="582.621,305.403 582.621,269.474 529.655,269.474 529.655,305.403 " />
<polygon stroke="black" stroke-width="1" fill="grey" fill-opacity="0.25" points="264.828,880.281 264.828,916.211 317.793,916.211 317.793,880.281 " />
<polygon stroke="black" stroke-width="1" fill="grey" fill-opacity="0.25" points="688.552,592.842 688.552,628.772 741.517,628.772 741.517,592.842 " />
<polygon stroke="black" stroke-width="1" fill="grey" fill-opacity="0.25" points="211.862,413.193 211.862,377.263 158.897,377.263 158.897,413.193 " />
<polygon stroke="black" stroke-width="1" fill="grey" fill-opacity="0.25" points="211.862,377.263 211.862,341.333 158.897,341.333 158.897,377.263 " />
<polygon stroke="black" stroke-width="1" fill="grey" fill-opacity="0.25" points="211.862,341.333 211.862,305.404 158.897,305.404 158.897,341.333 " />
<polygon stroke="black" stroke-width="1" fill="grey" fill-opacity="0.25" points="211.862,305.404 211.862,269.474 158.897,269.474 158.897,305.404 " />
<polygon stroke="black" stroke-width="1" fill="grey" fill-opacity="0.25" points="264.828,988.070 264.828,1024.000 317.793,1024.000 317.793,988.070 " />
<polygon stroke="black" stroke-width="1" fill="grey" fill-opacity="0.25" points="688.552,161.684 688.552,125.754 635.586,125.754 635.586,161.684 " />
<polygon stroke="black" stroke-width="1" fill="grey" fill-opacity="0.25" points="900.414,772.491 900.414,736.561 847.448,736.561 847.448,772.491 " />
<polygon stroke="black" stroke-width="1" fill="grey" fill-opacity="0.25" points="264.828,700.632 264.828,736.561 317.793,736.561 317.793,700.632 " />
<polygon stroke="black" stroke-width="1" fill="grey" fill-opacity="0.25" points="582.621,269.474 582.621,233.544 529.655,233.544 529.655,269.474 " />
<polygon stroke="black" stroke-width="1" fill="grey" fill-opacity="0.25" points="264.828,808.421 264.828,844.351 317.793,844.351 317.793,808.421 " />
<polygon stroke="black" stroke-width="1" fill="grey" fill-opacity="0.25" points="370.759,53.895 370.759,89.825 423.724,89.825 423.724,53.895 " />
<polygon stroke="black" stroke-width="1" fill="grey" fill-opacity="0.25" points="529.655,89.825 529.655,53.895 476.690,53.895 476.690,89.825 " />
<polygon stroke="black" stroke-width="1" fill="grey" fill-opacity="0.25" points="688.552,664.702 688.552,700.632 741.517,700.632 741.517,664.702 " />
<polygon stroke="black" stroke-width="1" fill="grey" fill-opacity="0.25" points="264.828,916.211 264.828,952.140 317.793,952.140 317.793,916.211 " />
<polygon stroke="black" stroke-width="1" fill="grey" fill-opacity="0.25" points="529.655,125.755 529.655,89.825 476.690,89.825 476.690,125.755 " />
<polygon stroke="black" stroke-width="1" fill="grey" fill-opacity="0.25" points="688.552,700.632 688.552,736.561 741.517,736.561 741.517,700.632 " />
<polygon stroke="black" stroke-width="1" fill="grey" fill-opacity="0.25" points="264.828,736.561 264.828,772.491 317.793,772.491 317.793,736.561 " />
<polygon stroke="black" stroke-width="1" fill="grey" fill-opacity="0.25" points="688.552,125.754 688.552,89.825 635.586,89.825 635.586,125.754 " />
<polygon stroke="black" stroke-width="1" fill="grey" fill-opacity="0.25" points="582.621,341.333 582.621,305.403 529.655,305.403 529.655,341.333 " />
<polygon stroke="black" stroke-width="1" fill="grey" fill-opacity="0.25" points="264.828,844.351 264.828,880.281 317.793,880.281 317.793,844.351 " />
<polygon stroke="black" stroke-width="1" fill="grey" fill-opacity="0.25" points="688.552,628.772 688.552,664.702 741.517,664.702 741.517,628.772 " />
<polygon stroke="black" stroke-width="1" fill="grey" fill-opacity="0.25" points="370.759,89.825 370.759,125.755 423.724,125.755 423.724,89.825 " />
<polygon stroke="black" stroke-width="1" fill="grey" fill-opacity="0.25" points="264.828,952.140 264.828,988.070 317.793,988.070 317.793,952.140 " />
<polygon stroke="black" stroke-width="1" fill="grey" fill-opacity="0.25" points="900.414,808.421 900.414,772.491 847.448,772.491 847.448,808.421 " />
<polygon stroke="black" stroke-width="1" fill="grey" fill-opacity="0.25" points="1006.345,35.930 971.034,35.930 971.034,89.825 1006.345,89.825 " />
<polygon stroke="black" stroke-width="1" fill="grey" fill-opacity="0.25" points="264.828,772.491 264.828,808.421 317.793,808.421 317.793,772.491 " />
<polygon stroke="black" stroke-width="1" fill="grey" fill-opacity="0.25" points="723.862,0.000 688.552,0.000 688.552,53.895 723.862,53.895 " />
<polygon stroke="black" stroke-width="1" fill="grey" fill-opacity="0.25" points="847.448,485.053 847.448,520.982 900.414,520.982 900.414,485.053 " />
<polygon stroke="black" stroke-width="1" fill="grey" fill-opacity="0.25" points="847.448,449.123 847.448,485.053 900.414,485.053 900.414,449.123 " />
<polygon stroke="black" stroke-width="1" fill="grey" fill-opacity="0.25" points="988.690,970.105 953.379,970.105 953.379,1024.000 988.690,1024.000 " />
<polygon stroke="black" stroke-width="1" fill="grey" fill-opacity="0.25" points="847.448,125.754 847.448,89.825 794.483,89.825 794.483,125.754 " />
<polygon stroke="black" stroke-width="1" fill="grey" fill-opacity="0.25" points="847.448,161.684 847.448,125.754 794.483,125.754 794.483,161.684 " />
<polygon stroke="black" stroke-width="1" fill="grey" fill-opacity="0.25" points="953.379,413.193 953.379,377.263 900.414,377.263 900.414,413.193 " />
<polygon stroke="black" stroke-width="1" fill="grey" fill-opacity="0.25" points="953.379,449.123 953.379,413.193 900.414,413.193 900.414,449.123 " />
<polygon stroke="black" stroke-width="1" fill="grey" fill-opacity="0.25" points="847.448,844.351 847.448,808.421 794.483,808.421 794.483,844.351 " />
<polygon stroke="black" stroke-width="1" fill="grey" fill-opacity="0.25" points="847.448,880.281 847.448,844.351 794.483,844.351 794.483,880.281 " />
<polygon stroke="black" stroke-width="1" fill="grey" fill-opacity="0.25" points="847.448,916.211 847.448,880.281 794.483,880.281 794.483,916.211 " />
<polygon stroke="black" stroke-width="1" fill="grey" fill-opacity="0.25" points="370.759,449.123 370.759,485.053 423.724,485.053 423.724,449.123 " />
<polygon stroke="black" stroke-width="1" fill="grey" fill-opacity="0.25" points="370.759,413.193 370.759,449.123 423.724,449.123 423.724,413.193 " />
<polygon stroke="black" stroke-width="1" fill="grey" fill-opacity="0.25" points="370.759,377.263 370.759,413.193 423.724,413.193 423.724,377.263 " />
<polygon stroke="black" stroke-width="1" fill="grey" fill-opacity="0.25" points="370.759,341.333 370.759,377.263 423.724,377.263 423.724,341.333 " />
<polygon stroke="black" stroke-width="1" fill="grey" fill-opacity="0.25" points="317.793,485.053 317.793,449.123 264.828,449.123 264.828,485.053 " />
<polygon stroke="black" stroke-width="1" fill="grey" fill-opacity="0.25" points="688.552,449.123 688.552,413.193 635.586,413.193 635.586,449.123 " />
<polygon stroke="black" stroke-width="1" fill="grey" fill-opacity="0.25" points="582.621,485.053 582.621,449.123 529.655,449.123 529.655,485.053 " />
<polygon stroke="black" stroke-width="1" fill="grey" fill-opacity="0.25" points="988.690,862.316 953.379,862.316 953.379,916.211 988.690,916.211 " />
<polygon stroke="black" stroke-width="1" fill="grey" fill-opacity="0.25" points="582.621,377.263 582.621,341.333 529.655,341.333 529.655,377.263 " />
<polygon stroke="black" stroke-width="1" fill="grey" fill-opacity="0.25" points="317.793,449.123 317.793,413.193 264.828,413.193 264.828,449.123 " />
<polygon stroke="black" stroke-width="1" fill="grey" fill-opacity="0.25" points="211.862,197.614 211.862,233.544 264.828,233.544 264.828,197.614 " />
<polygon stroke="black" stroke-width="1" fill="grey" fill-opacity="0.25" points="953.379,1024.000 953.379,988.070 900.414,988.070 900.414,1024.000 " />
<polygon stroke="black" stroke-width="1" fill="grey" fill-opacity="0.25" points="476.690,377.263 476.690,341.333 423.724,341.333 423.724,377.263 " />
<polygon stroke="black" stroke-width="1" fill="grey" fill-opacity="0.25" points="211.862,556.912 211.862,520.982 158.897,520.982 158.897,556.912 " />
<polygon stroke="black" stroke-width="1" fill="grey" fill-opacity="0.25" points="635.586,341.333 635.586,305.404 582.621,305.404 582.621,341.333 " />
<polygon stroke="black" stroke-width="1" fill="grey" fill-opacity="0.25" points="635.586,269.474 635.586,233.544 582.621,233.544 582.621,269.474 " />
<polygon stroke="black" stroke-width="1" fill="grey" fill-opacity="0.25" points="317.793,413.193 317.793,377.263 264.828,377.263 264.828,413.193 " />
<polygon stroke="black" stroke-width="1" fill="grey" fill-opacity="0.25" points="582.621,449.123 582.621,413.193 529.655,413.193 529.655,449.123 " />
<polygon stroke="black" stroke-width="1" fill="grey" fill-opacity="0.25" points="688.552,485.053 688.552,449.123 635.586,449.123 635.586,485.053 " />
<polygon stroke="black" stroke-width="1" fill="grey" fill-opacity="0.25" points="476.690,520.982 476.690,485.053 423.724,485.053 423.724,520.982 " />
<polygon stroke="black" stroke-width="1" fill="grey" fill-opacity="0.25" points="211.862,485.053 211.862,449.123 158.897,449.123 158.897,485.053 " />
<polygon stroke="black" stroke-width="1" fill="grey" fill-opacity="0.25" points="211.862,161.684 211.862,197.614 264.828,197.614 264.828,161.684 " />
<polygon stroke="black" stroke-width="1" fill="grey" fill-opacity="0.25" points="476.690,485.053 476.690,449.123 423.724,449.123 423.724,485.053 " />
<polygon stroke="black" stroke-width="1" fill="grey" fill-opacity="0.25" points="211.862,592.842 211.862,556.912 158.897,556.912 158.897,592.842 " />
<polygon stroke="black" stroke-width="1" fill="grey" fill-opacity="0.25" points="688.552,556.912 688.552,520.982 635.586,520.982 635.586,556.912 " />
<polygon stroke="black" stroke-width="1" fill="grey" fill-opacity="0.25" points="953.379,988.070 953.379,952.140 900.414,952.140 900.414,988.070 " />
<polygon stroke="black" stroke-width="1" fill="grey" fill-opacity="0.25" points="635.586,305.404 635.586,269.474 582.621,269.474 582.621,305.404 " />
<polygon stroke="black" stroke-width="1" fill="grey" fill-opacity="0.25" points="476.690,449.123 476.690,413.193 423.724,413.193 423.724,449.123 " />
<polygon stroke="black" stroke-width="1" fill="grey" fill-opacity="0.25" points="459.035,0.000 423.724,0.000 423.724,53.895 459.035,53.895 " />
<polygon stroke="black" stroke-width="1" fill="grey" fill-opacity="0.25" points="476.690,413.193 476.690,377.263 423.724,377.263 423.724,413.193 " />
<polygon stroke="black" stroke-width="1" fill="grey" fill-opacity="0.25" points="211.862,449.123 211.862,413.193 158.897,413.193 158.897,449.123 " />
<polygon stroke="black" stroke-width="1" fill="grey" fill-opacity="0.25" points="582.621,413.193 582.621,377.263 529.655,377.263 529.655,413.193 " />
<polygon stroke="black" stroke-width="1" fill="grey" fill-opacity="0.25" points="688.552,520.982 688.552,485.053 635.586,485.053 635.586,520.982 " />
<polygon stroke="black" stroke-width="1" fill="grey" fill-opacity="0.25" points="211.862,520.982 211.862,485.053 158.897,485.053 158.897,520.982 " />
<polygon stroke="black" stroke-width="1" fill="grey" fill-opacity="0.25" points="211.862,125.754 211.862,161.684 264.828,161.684 264.828,125.754 " />
<polygon stroke="black" stroke-width="1" fill="grey" fill-opacity="0.25" points="317.793,377.263 317.793,341.333 264.828,341.333 264.828,377.263 " />
<polygon stroke="black" stroke-width="1" fill="grey" fill-opacity="0.25" points="370.759,556.912 370.759,520.982 317.793,520.982 317.793,556.912 " />
<polygon stroke="black" stroke-width="1" fill="grey" fill-opacity="0.25" points="370.759,664.702 370.759,628.772 317.793,628.772 317.793,664.702 " />
<polygon stroke="black" stroke-width="1" fill="grey" fill-opacity="0.25" points="794.483,305.404 794.483,269.474 741.517,269.474 741.517,305.404 " />
<polygon stroke="black" stroke-width="1" fill="grey" fill-opacity="0.25" points="900.414,197.614 900.414,161.684 847.448,161.684 847.448,197.614 " />
<polygon stroke="black" stroke-width="1" fill="grey" fill-opacity="0.25" points="264.828,413.193 264.828,377.263 211.862,377.263 211.862,413.193 " />
<polygon stroke="black" stroke-width="1" fill="grey" fill-opacity="0.25" points="582.621,89.824 582.621,125.754 635.586,125.754 635.586,89.824 " />
<polygon stroke="black" stroke-width="1" fill="grey" fill-opacity="0.25" points="370.759,520.982 370.759,485.053 317.793,485.053 317.793,520.982 " />
<polygon stroke="black" stroke-width="1" fill="grey" fill-opacity="0.25" points="988.690,305.403 953.379,305.403 953.379,359.298 988.690,359.298 " />
<polygon stroke="black" stroke-width="1" fill="grey" fill-opacity="0.25" points="264.828,485.053 264.828,449.123 211.862,449.123 211.862,485.053 " />
<polygon stroke="black" stroke-width="1" fill="grey" fill-opacity="0.25" points="370.759,592.842 370.759,556.912 317.793,556.912 317.793,592.842 " />
<polygon stroke="black" stroke-width="1" fill="grey" fill-opacity="0.25" points="370.759,700.632 370.759,664.702 317.793,664.702 317.793,700.632 " />
<polygon stroke="black" stroke-width="1" fill="grey" fill-opacity="0.25" points="582.621,125.754 582.621,161.684 635.586,161.684 635.586,125.754 " />
<polygon stroke="black" stroke-width="1" fill="grey" fill-opacity="0.25" points="794.483,341.333 794.483,305.404 741.517,305.404 741.517,341.333 " />
<polygon stroke="black" stroke-width="1" fill="grey" fill-opacity="0.25" points="900.414,233.544 900.414,197.614 847.448,197.614 847.448,233.544 " />
<polygon stroke="black" stroke-width="1" fill="grey" fill-opacity="0.25" points="264.828,377.263 264.828,341.333 211.862,341.333 211.862,377.263 " />
<polygon stroke="black" stroke-width="1" fill="grey" fill-opacity="0.25" points="370.759,628.772 370.759,592.842 317.793,592.842 317.793,628.772 " />
<polygon stroke="black" stroke-width="1" fill="grey" fill-opacity="0.25" points="264.828,449.123 264.828,413.193 211.862,413.193 211.862,449.123 " />
<polygon stroke="black" stroke-width="1" fill="grey" fill-opacity="0.25" points="794.483,377.263 794.483,341.333 741.517,341.333 741.517,377.263 " />
<polygon stroke="black" stroke-width="1" fill="grey" fill-opacity="0.25" points="423.724,952.140 423.724,988.070 476.690,988.070 476.690,952.140 " />
<polygon stroke="black" stroke-width="1" fill="grey" fill-opacity="0.25" points="582.621,377.263 582.621,413.193 635.586,413.193 635.586,377.263 " />
<polygon stroke="black" stroke-width="1" fill="grey" fill-opacity="0.25" points="211.862,125.754 211.862,89.825 158.897,89.825 158.897,125.754 " />
<polygon stroke="black" stroke-width="1" fill="grey" fill-opacity="0.25" points="423.724,844.351 423.724,880.281 476.690,880.281 476.690,844.351 " />
<polygon stroke="black" stroke-width="1" fill="grey" fill-opacity="0.25" points="582.621,449.123 582.621,485.053 635.586,485.053 635.586,449.123 " />
<polygon stroke="black" stroke-width="1" fill="grey" fill-opacity="0.25" points="635.586,700.632 635.586,736.561 688.552,736.561 688.552,700.632 " />
<polygon stroke="black" stroke-width="1" fill="grey" fill-opacity="0.25" points="847.448,520.982 847.448,485.053 794.483,485.053 794.483,520.982 " />
<polygon stroke="black" stroke-width="1" fill="grey" fill-opacity="0.25" points="988.690,808.421 953.379,808.421 953.379,862.316 988.690,862.316 " />
<polygon stroke="black" stroke-width="1" fill="grey" fill-opacity="0.25" points="423.724,916.211 423.724,952.140 476.690,952.140 476.690,916.211 " />
<polygon stroke="black" stroke-width="1" fill="grey" fill-opacity="0.25" points="635.586,808.421 635.586,844.351 688.552,844.351 688.552,808.421 " />
<polygon stroke="black" stroke-width="1" fill="grey" fill-opacity="0.25" points="635.586,772.491 635.586,808.421 688.552,808.421 688.552,772.491 " />
<polygon stroke="black" stroke-width="1" fill="grey" fill-opacity="0.25" points="423.724,808.421 423.724,844.351 476.690,844.351 476.690,808.421 " />
<polygon stroke="black" stroke-width="1" fill="grey" fill-opacity="0.25" points="971.034,35.930 935.724,35.930 935.724,89.825 971.034,89.825 " />
<polygon stroke="black" stroke-width="1" fill="grey" fill-opacity="0.25" points="635.586,233.544 635.586,269.474 688.552,269.474 688.552,233.544 " />
<polygon stroke="black" stroke-width="1" fill="grey" fill-opacity="0.25" points="847.448,592.842 847.448,556.912 794.483,556.912 794.483,592.842 " />
<polygon stroke="black" stroke-width="1" fill="grey" fill-opacity="0.25" points="423.724,988.070 423.724,1024.000 476.690,1024.000 476.690,988.070 " />
<polygon stroke="black" stroke-width="1" fill="grey" fill-opacity="0.25" points="635.586,161.684 635.586,197.614 688.552,197.614 688.552,161.684 " />
<polygon stroke="black" stroke-width="1" fill="grey" fill-opacity="0.25" points="847.448,556.912 847.448,520.982 794.483,520.982 794.483,556.912 " />
<polygon stroke="black" stroke-width="1" fill="grey" fill-opacity="0.25" points="211.862,161.684 211.862,125.754 158.897,125.754 158.897,161.684 " />
<polygon stroke="black" stroke-width="1" fill="grey" fill-opacity="0.25" points="423.724,880.281 423.724,916.211 476.690,916.211 476.690,880.281 " />
<polygon stroke="black" stroke-width="1" fill="grey" fill-opacity="0.25" points="635.586,736.561 635.586,772.491 688.552,772.491 688.552,736.561 " />
<polygon stroke="black" stroke-width="1" fill="grey" fill-opacity="0.25" points="635.586,197.614 635.586,233.544 688.552,233.544 688.552,197.614 " />
<polygon stroke="black" stroke-width="1" fill="grey" fill-opacity="0.25" points="423.724,772.491 423.724,808.421 476.690,808.421 476.690,772.491 " />
<polygon stroke="black" stroke-width="1" fill="grey" fill-opacity="0.25" points="582.621,413.193 582.621,449.123 635.586,449.123 635.586,413.193 " />
<polygon stroke="black" stroke-width="1" fill="grey" fill-opacity="0.25" points="582.621,341.333 582.621,377.263 635.586,377.263 635.586,341.333 " />
<polygon stroke="black" stroke-width="1" fill="grey" fill-opacity="0.25" points="423.724,736.561 423.724,772.491 476.690,772.491 476.690,736.561 " />
<polygon stroke="black" stroke-width="1" fill="grey" fill-opacity="0.25" points="264.828,125.754 264.828,89.825 211.862,89.825 211.862,125.754 " />
<polygon stroke="black" stroke-width="1" fill="grey" fill-opacity="0.25" points="847.448,377.263 847.448,413.193 900.414,413.193 900.414,377.263 " />
<polygon stroke="black" stroke-width="1" fill="grey" fill-opacity="0.25" points="953.379,808.421 953.379,772.491 900.414,772.491 900.414,808.421 " />
<polygon stroke="black" stroke-width="1" fill="grey" fill-opacity="0.25" points="847.448,413.193 847.448,449.123 900.414,449.123 900.414,413.193 " />
<polygon stroke="black" stroke-width="1" fill="grey" fill-opacity="0.25" points="847.448,988.070 847.448,952.140 794.483,952.140 794.483,988.070 " />
<polygon stroke="black" stroke-width="1" fill="grey" fill-opacity="0.25" points="105.931,89.825 105.931,125.755 158.897,125.755 158.897,89.825 " />
<polygon stroke="black" stroke-width="1" fill="grey" fill-opacity="0.25" points="211.862,197.614 211.862,161.684 158.897,161.684 158.897,197.614 " />
<polygon stroke="black" stroke-width="1" fill="grey" fill-opacity="0.25" points="264.828,89.825 264.828,53.895 211.862,53.895 211.862,89.825 " />
<polygon stroke="black" stroke-width="1" fill="grey" fill-opacity="0.25" points="988.690,574.877 953.379,574.877 953.379,628.772 988.690,628.772 " />
<polygon stroke="black" stroke-width="1" fill="grey" fill-opacity="0.25" points="211.862,269.474 211.862,233.544 158.897,233.544 158.897,269.474 " />
<polygon stroke="black" stroke-width="1" fill="grey" fill-opacity="0.25" points="847.448,1024.000 847.448,988.070 794.483,988.070 794.483,1024.000 " />
<polygon stroke="black" stroke-width="1" fill="grey" fill-opacity="0.25" points="953.379,736.561 988.690,736.561 988.690,682.667 953.379,682.667 " />
<polygon stroke="black" stroke-width="1" fill="grey" fill-opacity="0.25" points="847.448,952.140 847.448,916.211 794.483,916.211 794.483,952.140 " />
<polygon stroke="black" stroke-width="1" fill="grey" fill-opacity="0.25" points="953.379,772.491 953.379,736.561 900.414,736.561 900.414,772.491 " />
<polygon stroke="black" stroke-width="1" fill="grey" fill-opacity="0.25" points="105.931,53.895 105.931,89.825 158.897,89.825 158.897,53.895 " />
<polygon stroke="black" stroke-width="1" fill="grey" fill-opacity="0.25" points="211.862,233.544 211.862,197.614 158.897,197.614 158.897,233.544 " />
<polygon stroke="black" stroke-width="1" fill="grey" fill-opacity="0.25" points="794.483,197.614 794.483,161.684 741.517,161.684 741.517,197.614 " />
<polygon stroke="black" stroke-width="1" fill="grey" fill-opacity="0.25" points="476.690,269.474 476.690,233.544 423.724,233.544 423.724,269.474 " />
<polygon stroke="black" stroke-width="1" fill="grey" fill-opacity="0.25" points="582.621,125.754 582.621,89.824 529.655,89.824 529.655,125.754 " />
<polygon stroke="black" stroke-width="1" fill="grey" fill-opacity="0.25" points="794.483,233.544 794.483,197.614 741.517,197.614 741.517,233.544 " />
<polygon stroke="black" stroke-width="1" fill="grey" fill-opacity="0.25" points="847.448,305.404 847.448,341.333 900.414,341.333 900.414,305.404 " />
<polygon stroke="black" stroke-width="1" fill="grey" fill-opacity="0.25" points="900.414,161.684 900.414,125.754 847.448,125.754 847.448,161.684 " />
<polygon stroke="black" stroke-width="1" fill="grey" fill-opacity="0.25" points="794.483,269.474 794.483,233.544 741.517,233.544 741.517,269.474 " />
<polygon stroke="black" stroke-width="1" fill="grey" fill-opacity="0.25" points="476.690,305.404 476.690,269.474 423.724,269.474 423.724,305.404 " />
<polygon stroke="black" stroke-width="1" fill="grey" fill-opacity="0.25" points="423.724,269.474 423.724,233.544 370.759,233.544 370.759,269.474 " />
<polygon stroke="black" stroke-width="1" fill="grey" fill-opacity="0.25" points="741.517,125.754 741.517,161.684 794.483,161.684 794.483,125.754 " />
<polygon stroke="black" stroke-width="1" fill="grey" fill-opacity="0.25" points="900.414,125.754 900.414,89.825 847.448,89.825 847.448,125.754 " />
<polygon stroke="black" stroke-width="1" fill="grey" fill-opacity="0.25" points="423.724,341.333 423.724,305.404 370.759,305.404 370.759,341.333 " />
<polygon stroke="black" stroke-width="1" fill="grey" fill-opacity="0.25" points="476.690,341.333 476.690,305.404 423.724,305.404 423.724,341.333 " />
<polygon stroke="black" stroke-width="1" fill="grey" fill-opacity="0.25" points="582.621,161.684 582.621,125.754 529.655,125.754 529.655,161.684 " />
<polygon stroke="black" stroke-width="1" fill="grey" fill-opacity="0.25" points="988.690,251.509 953.379,251.509 953.379,305.403 988.690,305.403 " />
<polygon stroke="black" stroke-width="1" fill="grey" fill-opacity="0.25" points="741.517,89.825 741.517,125.754 794.483,125.754 794.483,89.825 " />
<polygon stroke="black" stroke-width="1" fill="grey" fill-opacity="0.25" points="847.448,341.333 847.448,377.263 900.414,377.263 900.414,341.333 " />
<polygon stroke="black" stroke-width="1" fill="grey" fill-opacity="0.25" points="423.724,305.404 423.724,269.474 370.759,269.474 370.759,305.404 " />
<polygon stroke="black" stroke-width="1" fill="grey" fill-opacity="0.25" points="1024.000,916.211 988.690,916.210 988.690,970.105 1024.000,970.105 " />
<polygon stroke="black" stroke-width="1" fill="grey" fill-opacity="0.25" points="847.448,449.123 847.448,413.193 794.483,413.193 794.483,449.123 " />
<polygon stroke="black" stroke-width="1" fill="grey" fill-opacity="0.25" points="158.897,449.123 158.897,413.193 105.931,413.193 105.931,449.123 " />
<polygon stroke="black" stroke-width="1" fill="grey" fill-opacity="0.25" points="158.897,772.491 158.897,808.421 211.862,808.421 211.862,772.491 " />
<polygon stroke="black" stroke-width="1" fill="grey" fill-opacity="0.25" points="847.448,736.561 847.448,700.632 794.483,700.632 794.483,736.561 " />
<polygon stroke="black" stroke-width="1" fill="grey" fill-opacity="0.25" points="794.483,341.333 794.483,377.263 847.448,377.263 847.448,341.333 " />
<polygon stroke="black" stroke-width="1" fill="grey" fill-opacity="0.25" points="741.517,808.421 741.517,772.491 688.552,772.491 688.552,808.421 " />
<polygon stroke="black" stroke-width="1" fill="grey" fill-opacity="0.25" points="158.897,413.193 158.897,377.263 105.931,377.263 105.931,413.193 " />
<polygon stroke="black" stroke-width="1" fill="grey" fill-opacity="0.25" points="158.897,808.421 158.897,844.351 211.862,844.351 211.862,808.421 " />
<polygon stroke="black" stroke-width="1" fill="grey" fill-opacity="0.25" points="953.379,520.982 953.379,485.053 900.414,485.053 900.414,520.982 " />
<polygon stroke="black" stroke-width="1" fill="grey" fill-opacity="0.25" points="794.483,305.404 794.483,341.333 847.448,341.333 847.448,305.404 " />
<polygon stroke="black" stroke-width="1" fill="grey" fill-opacity="0.25" points="847.448,772.491 847.448,736.561 794.483,736.561 794.483,772.491 " />
<polygon stroke="black" stroke-width="1" fill="grey" fill-opacity="0.25" points="953.379,485.053 953.379,449.123 900.414,449.123 900.414,485.053 " />
<polygon stroke="black" stroke-width="1" fill="grey" fill-opacity="0.25" points="794.483,269.474 794.483,305.404 847.448,305.404 847.448,269.474 " />
<polygon stroke="black" stroke-width="1" fill="grey" fill-opacity="0.25" points="211.862,233.544 211.862,269.474 264.828,269.474 264.828,233.544 " />
<polygon stroke="black" stroke-width="1" fill="grey" fill-opacity="0.25" points="158.897,377.263 158.897,341.333 105.931,341.333 105.931,377.263 " />
<polygon stroke="black" stroke-width="1" fill="grey" fill-opacity="0.25" points="158.897,844.351 158.897,880.281 211.862,880.281 211.862,844.351 " />
<polygon stroke="black" stroke-width="1" fill="grey" fill-opacity="0.25" points="211.862,305.404 211.862,341.333 264.828,341.333 264.828,305.404 " />
<polygon stroke="black" stroke-width="1" fill="grey" fill-opacity="0.25" points="105.931,125.754 105.931,89.825 52.966,89.825 52.966,125.754 " />
<polygon stroke="black" stroke-width="1" fill="grey" fill-opacity="0.25" points="741.517,844.351 741.517,808.421 688.552,808.421 688.552,844.351 " />
<polygon stroke="black" stroke-width="1" fill="grey" fill-opacity="0.25" points="158.897,880.281 158.897,916.211 211.862,916.211 211.862,880.281 " />
<polygon stroke="black" stroke-width="1" fill="grey" fill-opacity="0.25" points="158.897,592.842 158.897,628.772 211.862,628.772 211.862,592.842 " />
<polygon stroke="black" stroke-width="1" fill="grey" fill-opacity="0.25" points="105.931,89.825 105.931,53.895 52.966,53.895 52.966,89.825 " />
<polygon stroke="black" stroke-width="1" fill="grey" fill-opacity="0.25" points="158.897,988.070 158.897,1024.000 211.862,1024.000 211.862,988.070 " />
<polygon stroke="black" stroke-width="1" fill="grey" fill-opacity="0.25" points="988.690,628.772 953.379,628.772 953.379,682.667 988.690,682.667 " />
<polygon stroke="black" stroke-width="1" fill="grey" fill-opacity="0.25" points="847.448,413.193 847.448,377.263 794.483,377.263 794.483,413.193 " />
<polygon stroke="black" stroke-width="1" fill="grey" fill-opacity="0.25" points="158.897,916.211 158.897,952.140 211.862,952.140 211.862,916.211 " />
<polygon stroke="black" stroke-width="1" fill="grey" fill-opacity="0.25" points="741.517,880.281 741.517,844.351 688.552,844.351 688.552,880.281 " />
<polygon stroke="black" stroke-width="1" fill="grey" fill-opacity="0.25" points="953.379,844.351 953.379,808.421 900.414,808.421 900.414,844.351 " />
<polygon stroke="black" stroke-width="1" fill="grey" fill-opacity="0.25" points="158.897,628.772 158.897,664.702 211.862,664.702 211.862,628.772 " />
<polygon stroke="black" stroke-width="1" fill="grey" fill-opacity="0.25" points="847.448,808.421 847.448,772.491 794.483,772.491 794.483,808.421 " />
<polygon stroke="black" stroke-width="1" fill="grey" fill-opacity="0.25" points="158.897,952.140 158.897,988.070 211.862,988.070 211.862,952.140 " />
<polygon stroke="black" stroke-width="1" fill="grey" fill-opacity="0.25" points="158.897,664.702 158.897,700.632 211.862,700.632 211.862,664.702 " />
<polygon stroke="black" stroke-width="1" fill="grey" fill-opacity="0.25" points="847.448,485.053 847.448,449.123 794.483,449.123 794.483,485.053 " />
<polygon stroke="black" stroke-width="1" fill="grey" fill-opacity="0.25" points="988.690,197.614 953.379,197.614 953.379,251.509 988.690,251.509 " />
<polygon stroke="black" stroke-width="1" fill="grey" fill-opacity="0.25" points="158.897,520.983 158.897,485.053 105.931,485.053 105.931,520.983 " />
<polygon stroke="black" stroke-width="1" fill="grey" fill-opacity="0.25" points="741.517,772.491 741.517,736.561 688.552,736.561 688.552,772.491 " />
<polygon stroke="black" stroke-width="1" fill="grey" fill-opacity="0.25" points="847.448,269.474 847.448,305.404 900.414,305.404 900.414,269.474 " />
<polygon stroke="black" stroke-width="1" fill="grey" fill-opacity="0.25" points="158.897,700.632 158.897,736.561 211.862,736.561 211.862,700.632 " />
<polygon stroke="black" stroke-width="1" fill="grey" fill-opacity="0.25" points="953.379,880.281 953.379,844.351 900.414,844.351 900.414,880.281 " />
<polygon stroke="black" stroke-width="1" fill="grey" fill-opacity="0.25" points="211.862,269.474 211.862,305.404 264.828,305.404 264.828,269.474 " />
<polygon stroke="black" stroke-width="1" fill="grey" fill-opacity="0.25" points="847.448,233.544 847.448,269.474 900.414,269.474 900.414,233.544 " />
<polygon stroke="black" stroke-width="1" fill="grey" fill-opacity="0.25" points="158.897,485.053 158.897,449.123 105.931,449.123 105.931,485.053 " />
<polygon stroke="black" stroke-width="1" fill="grey" fill-opacity="0.25" points="158.897,736.561 158.897,772.491 211.862,772.491 211.862,736.561 " />
<polygon stroke="black" stroke-width="1" fill="grey" fill-opacity="0.25" points="476.690,880.281 476.690,916.211 529.655,916.211 529.655,880.281 " />
<polygon stroke="black" stroke-width="1" fill="grey" fill-opacity="0.25" points="900.414,664.702 900.414,628.772 847.448,628.772 847.448,664.702 " />
<polygon stroke="black" stroke-width="1" fill="grey" fill-opacity="0.25" points="264.828,520.982 264.828,485.053 211.862,485.053 211.862,520.982 " />
<polygon stroke="black" stroke-width="1" fill="grey" fill-opacity="0.25" points="264.828,628.772 264.828,592.842 211.862,592.842 211.862,628.772 " />
<polygon stroke="black" stroke-width="1" fill="grey" fill-opacity="0.25" points="794.483,880.281 794.483,844.351 741.517,844.351 741.517,880.281 " />
<polygon stroke="black" stroke-width="1" fill="grey" fill-opacity="0.25" points="476.690,952.140 476.690,988.070 529.655,988.070 529.655,952.140 " />
<polygon stroke="black" stroke-width="1" fill="grey" fill-opacity="0.25" points="847.448,53.895 847.448,89.825 900.414,89.825 900.414,53.895 " />
<polygon stroke="black" stroke-width="1" fill="grey" fill-opacity="0.25" points="476.690,844.351 476.690,880.281 529.655,880.281 529.655,844.351 " />
<polygon stroke="black" stroke-width="1" fill="grey" fill-opacity="0.25" points="953.379,269.474 953.379,233.544 900.414,233.544 900.414,269.474 " />
<polygon stroke="black" stroke-width="1" fill="grey" fill-opacity="0.25" points="900.414,628.772 900.414,592.842 847.448,592.842 847.448,628.772 " />
<polygon stroke="black" stroke-width="1" fill="grey" fill-opacity="0.25" points="264.828,556.912 264.828,520.982 211.862,520.982 211.862,556.912 " />
<polygon stroke="black" stroke-width="1" fill="grey" fill-opacity="0.25" points="794.483,808.421 794.483,772.491 741.517,772.491 741.517,808.421 " />
<polygon stroke="black" stroke-width="1" fill="grey" fill-opacity="0.25" points="476.690,772.491 476.690,808.421 529.655,808.421 529.655,772.491 " />
<polygon stroke="black" stroke-width="1" fill="grey" fill-opacity="0.25" points="476.690,916.211 476.690,952.140 529.655,952.140 529.655,916.211 " />
<polygon stroke="black" stroke-width="1" fill="grey" fill-opacity="0.25" points="476.690,808.421 476.690,844.351 529.655,844.351 529.655,808.421 " />
<polygon stroke="black" stroke-width="1" fill="grey" fill-opacity="0.25" points="794.483,772.491 794.483,736.561 741.517,736.561 741.517,772.491 " />
<polygon stroke="black" stroke-width="1" fill="grey" fill-opacity="0.25" points="52.966,125.754 52.966,161.684 105.931,161.684 105.931,125.754 " />
<polygon stroke="black" stroke-width="1" fill="grey" fill-opacity="0.25" points="688.552,988.070 688.552,952.140 635.586,952.140 635.586,988.070 " />
<polygon stroke="black" stroke-width="1" fill="grey" fill-opacity="0.25" points="988.690,467.088 953.379,467.088 953.379,520.982 988.690,520.982 " />
<polygon stroke="black" stroke-width="1" fill="grey" fill-opacity="0.25" points="794.483,988.070 794.483,952.140 741.517,952.140 741.517,988.070 " />
<polygon stroke="black" stroke-width="1" fill="grey" fill-opacity="0.25" points="370.759,125.754 370.759,89.825 317.793,89.825 317.793,125.754 " />
<polygon stroke="black" stroke-width="1" fill="grey" fill-opacity="0.25" points="688.552,1024.000 688.552,988.070 635.586,988.070 635.586,1024.000 " />
<polygon stroke="black" stroke-width="1" fill="grey" fill-opacity="0.25" points="370.759,89.825 370.759,53.895 317.793,53.895 317.793,89.825 " />
<polygon stroke="black" stroke-width="1" fill="grey" fill-opacity="0.25" points="794.483,1024.000 794.483,988.070 741.517,988.070 741.517,1024.000 " />
<polygon stroke="black" stroke-width="1" fill="grey" fill-opacity="0.25" points="52.966,161.684 52.966,197.614 105.931,197.614 105.931,161.684 " />
<polygon stroke="black" stroke-width="1" fill="grey" fill-opacity="0.25" points="370.759,0.000 335.448,0.000 335.448,53.895 370.759,53.895 " />
<polygon stroke="black" stroke-width="1" fill="grey" fill-opacity="0.25" points="794.483,952.140 794.483,916.211 741.517,916.211 741.517,952.140 " />
<polygon stroke="black" stroke-width="1" fill="grey" fill-opacity="0.25" points="688.552,880.281 688.552,844.351 635.586,844.351 635.586,880.281 " />
<polygon stroke="black" stroke-width="1" fill="grey" fill-opacity="0.25" points="688.552,916.211 688.552,880.281 635.586,880.281 635.586,916.211 " />
<polygon stroke="black" stroke-width="1" fill="grey" fill-opacity="0.25" points="52.966,197.614 52.966,233.544 105.931,233.544 105.931,197.614 " />
<polygon stroke="black" stroke-width="1" fill="grey" fill-opacity="0.25" points="794.483,916.211 794.483,880.281 741.517,880.281 741.517,916.211 " />
<polygon stroke="black" stroke-width="1" fill="grey" fill-opacity="0.25" points="688.552,952.140 688.552,916.211 635.586,916.211 635.586,952.140 " />
<polygon stroke="black" stroke-width="1" fill="grey" fill-opacity="0.25" points="794.483,736.561 794.483,700.632 741.517,700.632 741.517,736.561 " />
<polygon stroke="black" stroke-width="1" fill="grey" fill-opacity="0.25" points="582.621,736.561 582.621,772.491 635.586,772.491 635.586,736.561 " />
<polygon stroke="black" stroke-width="1" fill="grey" fill-opacity="0.25" points="582.621,916.211 582.621,952.140 635.586,952.140 635.586,916.211 " />
<polygon stroke="black" stroke-width="1" fill="grey" fill-opacity="0.25" points="406.069,0.000 370.759,0.000 370.759,53.895 406.069,53.895 " />
<polygon stroke="black" stroke-width="1" fill="grey" fill-opacity="0.25" points="794.483,664.702 794.483,628.772 741.517,628.772 741.517,664.702 " />
<polygon stroke="black" stroke-width="1" fill="grey" fill-opacity="0.25" points="476.690,233.544 476.690,197.614 423.724,197.614 423.724,233.544 " />
<polygon stroke="black" stroke-width="1" fill="grey" fill-opacity="0.25" points="529.655,341.333 529.655,305.404 476.690,305.404 476.690,341.333 " />
<polygon stroke="black" stroke-width="1" fill="grey" fill-opacity="0.25" points="582.621,700.632 582.621,736.561 635.586,736.561 635.586,700.632 " />
<polygon stroke="black" stroke-width="1" fill="grey" fill-opacity="0.25" points="582.621,808.421 582.621,844.351 635.586,844.351 635.586,808.421 " />
<polygon stroke="black" stroke-width="1" fill="grey" fill-opacity="0.25" points="300.138,0.000 264.828,0.000 264.828,53.895 300.138,53.895 " />
<polygon stroke="black" stroke-width="1" fill="grey" fill-opacity="0.25" points="847.448,916.211 847.448,952.140 900.414,952.140 900.414,916.211 " />
<polygon stroke="black" stroke-width="1" fill="grey" fill-opacity="0.25" points="688.552,53.895 688.552,17.965 635.586,17.965 635.586,53.895 " />
<polygon stroke="black" stroke-width="1" fill="grey" fill-opacity="0.25" points="529.655,0.000 494.345,0.000 494.345,53.895 529.655,53.895 " />
<polygon stroke="black" stroke-width="1" fill="grey" fill-opacity="0.25" points="529.655,269.474 529.655,233.544 476.690,233.544 476.690,269.474 " />
<polygon stroke="black" stroke-width="1" fill="grey" fill-opacity="0.25" points="582.621,952.140 582.621,988.070 635.586,988.070 635.586,952.140 " />
<polygon stroke="black" stroke-width="1" fill="grey" fill-opacity="0.25" points="847.448,880.281 847.448,916.211 900.414,916.211 900.414,880.281 " />
<polygon stroke="black" stroke-width="1" fill="grey" fill-opacity="0.25" points="476.690,161.684 476.690,125.754 423.724,125.754 423.724,161.684 " />
<polygon stroke="black" stroke-width="1" fill="grey" fill-opacity="0.25" points="794.483,700.632 794.483,664.702 741.517,664.702 741.517,700.632 " />
<polygon stroke="black" stroke-width="1" fill="grey" fill-opacity="0.25" points="582.621,772.491 582.621,808.421 635.586,808.421 635.586,772.491 " />
<polygon stroke="black" stroke-width="1" fill="grey" fill-opacity="0.25" points="529.655,377.263 529.655,341.333 476.690,341.333 476.690,377.263 " />
<polygon stroke="black" stroke-width="1" fill="grey" fill-opacity="0.25" points="582.621,664.702 582.621,700.632 635.586,700.632 635.586,664.702 " />
<polygon stroke="black" stroke-width="1" fill="grey" fill-opacity="0.25" points="582.621,880.281 582.621,916.211 635.586,916.211 635.586,880.281 " />
<polygon stroke="black" stroke-width="1" fill="grey" fill-opacity="0.25" points="582.621,844.351 582.621,880.281 635.586,880.281 635.586,844.351 " />
<polygon stroke="black" stroke-width="1" fill="grey" fill-opacity="0.25" points="794.483,628.772 794.483,592.842 741.517,592.842 741.517,628.772 " />
<polygon stroke="black" stroke-width="1" fill="grey" fill-opacity="0.25" points="476.690,197.614 476.690,161.684 423.724,161.684 423.724,197.614 " />
<polygon stroke="black" stroke-width="1" fill="grey" fill-opacity="0.25" points="688.552,89.825 688.552,53.895 635.586,53.895 635.586,89.825 " />
<polygon stroke="black" stroke-width="1" fill="grey" fill-opacity="0.25" points="582.621,988.070 582.621,1024.000 635.586,1024.000 635.586,988.070 " />
<polygon stroke="black" stroke-width="1" fill="grey" fill-opacity="0.25" points="529.655,305.404 529.655,269.474 476.690,269.474 476.690,305.404 " />
<polygon stroke="black" stroke-width="1" fill="grey" fill-opacity="0.25" points="370.759,988.070 370.759,1024.000 423.724,1024.000 423.724,988.070 " />
<polygon stroke="black" stroke-width="1" fill="grey" fill-opacity="0.25" points="370.759,772.491 370.759,808.421 423.724,808.421 423.724,772.491 " />
<polygon stroke="black" stroke-width="1" fill="grey" fill-opacity="0.25" points="335.448,0.000 300.138,0.000 300.138,53.895 335.448,53.895 " />
<polygon stroke="black" stroke-width="1" fill="grey" fill-opacity="0.25" points="900.414,592.842 900.414,628.772 953.379,628.772 953.379,592.842 " />
<polygon stroke="black" stroke-width="1" fill="grey" fill-opacity="0.25" points="529.655,161.684 529.655,197.614 582.621,197.614 582.621,161.684 " />
<polygon stroke="black" stroke-width="1" fill="grey" fill-opacity="0.25" points="1024.000,862.316 988.690,862.316 988.690,916.210 1024.000,916.210 " />
<polygon stroke="black" stroke-width="1" fill="grey" fill-opacity="0.25" points="370.759,736.561 370.759,772.491 423.724,772.491 423.724,736.561 " />
<polygon stroke="black" stroke-width="1" fill="grey" fill-opacity="0.25" points="741.517,413.193 741.517,377.263 688.552,377.263 688.552,413.193 " />
<polygon stroke="black" stroke-width="1" fill="grey" fill-opacity="0.25" points="529.655,17.965 529.655,53.895 582.621,53.895 582.621,17.965 " />
<polygon stroke="black" stroke-width="1" fill="grey" fill-opacity="0.25" points="847.448,89.825 847.448,53.895 794.483,53.895 794.483,89.825 " />
<polygon stroke="black" stroke-width="1" fill="grey" fill-opacity="0.25" points="988.690,143.719 953.379,143.719 953.379,197.614 988.690,197.614 " />
<polygon stroke="black" stroke-width="1" fill="grey" fill-opacity="0.25" points="370.759,161.684 370.759,125.754 317.793,125.754 317.793,161.684 " />
<polygon stroke="black" stroke-width="1" fill="grey" fill-opacity="0.25" points="370.759,233.544 370.759,197.614 317.793,197.614 317.793,233.544 " />
<polygon stroke="black" stroke-width="1" fill="grey" fill-opacity="0.25" points="847.448,53.895 847.448,17.965 794.483,17.965 794.483,53.895 " />
<polygon stroke="black" stroke-width="1" fill="grey" fill-opacity="0.25" points="935.724,35.930 900.414,35.930 900.414,89.825 935.724,89.825 " />
<polygon stroke="black" stroke-width="1" fill="grey" fill-opacity="0.25" points="635.586,520.982 635.586,485.053 582.621,485.053 582.621,520.982 " />
<polygon stroke="black" stroke-width="1" fill="grey" fill-opacity="0.25" points="900.414,628.772 900.414,664.702 953.379,664.702 953.379,628.772 " />
<polygon stroke="black" stroke-width="1" fill="grey" fill-opacity="0.25" points="370.759,197.614 370.759,161.684 317.793,161.684 317.793,197.614 " />
<polygon stroke="black" stroke-width="1" fill="grey" fill-opacity="0.25" points="370.759,952.140 370.759,988.070 423.724,988.070 423.724,952.140 " />
<polygon stroke="black" stroke-width="1" fill="grey" fill-opacity="0.25" points="741.517,341.333 741.517,305.404 688.552,305.404 688.552,341.333 " />
<polygon stroke="black" stroke-width="1" fill="grey" fill-opacity="0.25" points="635.586,556.912 635.586,520.982 582.621,520.982 582.621,556.912 " />
<polygon stroke="black" stroke-width="1" fill="grey" fill-opacity="0.25" points="741.517,449.123 741.517,413.193 688.552,413.193 688.552,449.123 " />
<polygon stroke="black" stroke-width="1" fill="grey" fill-opacity="0.25" points="370.759,916.211 370.759,952.140 423.724,952.140 423.724,916.211 " />
<polygon stroke="black" stroke-width="1" fill="grey" fill-opacity="0.25" points="635.586,592.842 635.586,556.912 582.621,556.912 582.621,592.842 " />
<polygon stroke="black" stroke-width="1" fill="grey" fill-opacity="0.25" points="529.655,53.895 529.655,89.824 582.621,89.824 582.621,53.895 " />
<polygon stroke="black" stroke-width="1" fill="grey" fill-opacity="0.25" points="529.655,197.614 529.655,233.544 582.621,233.544 582.621,197.614 " />
<polygon stroke="black" stroke-width="1" fill="grey" fill-opacity="0.25" points="123.586,0.000 88.276,0.000 88.276,53.895 123.586,53.895 " />
<polygon stroke="black" stroke-width="1" fill="grey" fill-opacity="0.25" points="370.759,880.281 370.759,916.211 423.724,916.211 423.724,880.281 " />
<polygon stroke="black" stroke-width="1" fill="grey" fill-opacity="0.25" points="635.586,628.772 635.586,592.842 582.621,592.842 582.621,628.772 " />
<polygon stroke="black" stroke-width="1" fill="grey" fill-opacity="0.25" points="494.345,0.000 459.035,0.000 459.035,53.895 494.345,53.895 " />
<polygon stroke="black" stroke-width="1" fill="grey" fill-opacity="0.25" points="1024.000,754.526 988.690,754.526 988.690,808.421 1024.000,808.421 " />
<polygon stroke="black" stroke-width="1" fill="grey" fill-opacity="0.25" points="370.759,844.351 370.759,880.281 423.724,880.281 423.724,844.351 " />
<polygon stroke="black" stroke-width="1" fill="grey" fill-opacity="0.25" points="741.517,377.263 741.517,341.333 688.552,341.333 688.552,377.263 " />
<polygon stroke="black" stroke-width="1" fill="grey" fill-opacity="0.25" points="1024.000,682.667 988.690,682.667 988.690,736.561 1024.000,736.561 " />
<polygon stroke="black" stroke-width="1" fill="grey" fill-opacity="0.25" points="635.586,664.702 635.586,628.772 582.621,628.772 582.621,664.702 " />
<polygon stroke="black" stroke-width="1" fill="grey" fill-opacity="0.25" points="370.759,808.421 370.759,844.351 423.724,844.351 423.724,808.421 " />
<polygon stroke="black" stroke-width="1" fill="grey" fill-opacity="0.25" points="900.414,880.281 900.414,844.351 847.448,844.351 847.448,880.281 " />

</svg>
